<?xml version="1.0" encoding="utf-8" ?>
<svg xmlns="http://www.w3.org/2000/svg" xmlns:xlink="http://www.w3.org/1999/xlink" width="338" height="149">
	<defs>
		<linearGradient id="gradient_0" gradientUnits="userSpaceOnUse" x1="46.422165" y1="50.377522" x2="47.215256" y2="50.673817">
			<stop offset="0" stop-color="black" stop-opacity="0.95294118"/>
			<stop offset="1" stop-color="black" stop-opacity="0.98431373"/>
		</linearGradient>
	</defs>
	<path fill="url(#gradient_0)" d="M47.0327 44.6806C47.1544 45.9966 47.2573 47.3056 47.3098 48.6268C47.2006 49.8293 47.5109 53.1488 46.7733 53.9923L46.1438 51.2387C47.2613 49.7727 46.886 46.4889 47.0327 44.6806Z"/>
	<path d="M22.5336 119.342L26.2306 126.973L25.8767 127.447L25.3247 127.509L24.8969 128.24C23.6142 126.034 22.6341 123.58 21.6967 121.211C22.1548 120.803 22.3359 119.915 22.5336 119.342Z"/>
	<path d="M21.6967 121.211C19.8498 117.355 18.11 112.043 17.3808 107.844C17.2804 107.266 17.0949 106.532 17.4366 106.039C17.6832 106.347 21.9528 117.939 22.5336 119.342C22.3359 119.915 22.1548 120.803 21.6967 121.211Z"/>
	<path d="M56.184 55.1443C63.1231 54.7753 68.7584 51.9082 75.2843 50.093C76.1629 49.8486 77.8383 48.8088 78.6186 49.0778L78.7003 49.1967C78.3626 49.4589 78.0468 49.3471 77.678 49.4885L77.6738 49.8274C77.6539 49.8258 77.634 49.8234 77.614 49.8226C76.7807 49.7886 75.2216 50.6303 74.3664 50.9572C67.8206 53.4595 58.8754 57.8758 51.7794 55.7067C53.1234 54.9526 55.0279 55.906 56.184 55.1443Z"/>
	<path d="M26.2306 126.973C27.7328 129.716 29.1973 132.517 30.9348 135.12C31.5826 136.091 33.7259 138.684 33.9515 139.63L33.7573 140.086C33.0599 140.17 32.6785 140.116 32.0885 139.662C30.8258 138.689 25.5027 130.066 24.8969 128.24L25.3247 127.509L25.8767 127.447L26.2306 126.973Z"/>
	<path d="M36.5966 27.737C38.9804 27.6693 41.362 27.7274 43.7438 27.6009C46.7613 27.4406 49.8111 27.0654 52.8322 27.2438L53.1478 27.6358L53.1563 27.2836L53.534 27.4308C51.1185 28.5364 45.0956 28.6629 42.1443 29.1118C43.6494 30.7618 45.0211 32.1247 47.016 33.2C50.1297 34.8784 64.1533 37.7786 64.771 38.6535C62.2162 38.5544 48.8236 35.7292 46.7103 34.585C44.835 33.5697 43.252 31.8024 41.7084 30.3491C40.6204 29.3248 39.8753 28.6323 38.2853 29.1891C38.1804 28.881 38.1813 28.6337 38.2023 28.3155L38.2106 28.198Q37.407 27.9557 36.5966 27.737Z"/>
	<path d="M47.3098 48.6268C47.5387 50.164 47.8502 51.7618 48.6368 53.1257C51.1407 54.7298 53.2777 55.0337 56.184 55.1443C55.0279 55.906 53.1234 54.9526 51.7794 55.7067C50.6087 55.517 49.4114 55.0213 48.2818 54.6518C50.6269 60.2658 53.4006 65.7521 55.9615 71.2742C57.2134 73.9737 58.7803 76.8233 59.4863 79.7166C57.5955 77.0257 56.1506 73.8071 54.6108 70.9025C51.839 65.6739 47.9948 59.8395 46.7733 53.9923C47.5109 53.1488 47.2006 49.8293 47.3098 48.6268Z"/>
	<path fill="#B20F10" d="M38.3431 63.9421C38.3919 63.9727 38.4409 64.0029 38.4881 64.0359C39.5961 64.809 40.3556 66.323 40.9744 67.4999C45.2628 75.6556 45.8245 84.6215 47.6146 93.4665Q48.7423 99.1978 50.5718 104.745Q51.4693 107.38 52.7465 109.853C53.7246 111.705 55.7346 114.078 56.0814 116.094C56.0019 116.043 55.9261 115.989 55.851 115.931C54.1607 114.627 52.8108 112.252 51.8616 110.359C46.1 98.8645 46.3259 87.3027 42.9322 75.4783C42.0711 72.4782 38.5753 65.9696 38.3431 63.9421Z"/>
	<path d="M41.2813 45.5629C41.5321 46.3052 40.4791 47.0746 40.0911 47.7803C39.4232 48.9955 37.9818 54.3062 37.4528 56.0472C37.3219 56.4781 37.0377 57.2677 37.1139 57.7153C37.3243 58.9524 41.0172 61.9673 41.9803 63.352C45.6027 68.5604 46.6915 74.5688 49.0984 80.317C49.9345 82.3135 50.7718 84.4667 51.8722 86.3307C52.7496 87.817 53.8313 89.0959 54.6474 90.6347L54.5693 90.8883L53.6969 90.0615C50.1362 85.7623 47.8612 80.5137 45.9492 75.3284C45.0045 72.7667 44.1432 70.0471 42.7666 67.6787C41.7057 65.8535 35.8863 59.1096 35.7182 58.3455C35.1454 55.7423 38.8287 51.8897 37.9522 49.3726C37.8532 49.0883 37.2284 48.8704 36.9484 48.7288L36.8934 48.43C37.9305 47.3047 39.9518 46.3674 41.2813 45.5629Z"/>
	<path d="M140.72 50.0234Q141.098 50.0181 141.475 50.055C142.562 50.167 144.194 50.7188 144.883 51.6086C145.338 52.1975 145.418 52.8942 145.324 53.6151C145.007 56.0624 142.778 57.6021 141.775 59.7199C141.397 60.5179 141.465 61.636 140.992 62.3473C140.563 62.9915 139.504 63.6576 138.883 64.1342C138.458 64.4688 137.742 64.9693 137.229 65.1207C136.618 65.3007 136.419 65.1732 135.89 64.9021C134.447 62.5723 138.38 57.9805 139.019 55.4894C139.345 54.2159 138.68 52.8469 139.018 51.5435C139.206 50.8175 140.122 50.3787 140.72 50.0234Z"/>
	<path d="M266.403 48.1247C269.211 47.5662 272.32 48.6595 274.995 49.4777C280.39 51.1275 293.628 55.5231 296.214 60.3835L295.951 60.63L294.798 60.269C294.521 60.0556 294.08 59.9604 293.748 59.8466C292.934 60.2949 292.188 60.3683 291.284 60.1523C289.178 59.649 286.88 58.3057 284.85 57.4627C280.175 55.5226 270.258 52.0333 265.45 51.8134C266.01 50.7588 265.992 49.2977 266.403 48.1247Z"/>
	<path d="M23.9845 28.3912Q21.5031 28.1649 19.0396 27.7911C16.8568 27.4795 10.8418 27.0368 9.47077 25.2084C9.62838 24.9747 9.79737 24.7859 10.007 24.5976C13.3959 21.5548 28.6584 9.92326 32.4422 10.2534C33.7065 10.3638 43.3177 17.627 44.4361 18.9617C42.7422 18.7043 34.315 12.0368 31.482 10.787C29.158 11.8339 12.3572 23.6047 11.861 24.6313C11.78 24.7989 11.9265 25.0273 11.9905 25.1994C15.208 27.9439 31.8179 26.8297 36.4533 27.7084L36.5966 27.737Q37.407 27.9557 38.2106 28.198L38.2023 28.3155C38.1813 28.6337 38.1804 28.881 38.2853 29.1891C37.3897 30.5611 35.1015 33.3511 35.4195 35.0835C35.5117 35.5854 35.8359 35.9321 36.1904 36.2751C37.0001 36.647 37.6696 36.5485 38.4779 36.2513C40.1894 35.6219 43.254 33.654 45.0399 34.4814C45.7317 34.8019 46.1427 35.5264 46.3715 36.2232C47.1381 38.5569 47.181 42.2541 47.0327 44.6806C46.886 46.4889 47.2613 49.7727 46.1438 51.2387C45.7664 47.9061 46.1019 37.7969 44.7321 35.5831C42.8133 34.4328 39.4286 37.4518 36.8799 37.1009C35.2957 36.8827 34.6356 35.9014 33.7347 34.7118C32.9736 34.4576 32.0253 34.2171 31.3698 33.7528C29.5268 32.4473 28.3225 29.1837 26.1123 28.5049L25.6786 28.7943C25.0631 30.0638 25.2663 31.7751 25.6788 33.0831C26.6984 36.316 27.709 34.6874 29.6337 35.6742C26.9925 37.59 23.5583 33.6843 21.1914 33.4262C19.9638 34.6276 21.0569 38.5484 20.5479 40.2903C19.6956 38.4827 19.412 35.3222 19.8273 33.3797C19.9659 32.7311 20.0804 32.5148 20.6275 32.1652C22.1244 32.5074 23.7763 33.5585 25.1664 34.2482C24.5616 32.3027 24.2461 30.4051 23.9845 28.3912Z"/>
	<path fill="#B20F10" d="M24.2639 52.6961C23.19 58.0728 19.6716 61.8845 17.3104 66.6568C15.8814 69.545 15.1898 72.6753 14.4754 75.797C13.9131 85.3881 17.3215 93.8483 21.4873 102.321C22.0566 103.479 23.8053 106.097 23.8543 107.267C25.1649 109.328 26.2857 111.503 27.577 113.578C28.7176 115.411 30.1458 117.265 31.1243 119.168C32.0267 120.33 32.9885 121.451 33.5743 122.811L33.4116 123.078C32.5145 122.881 31.1406 122.119 30.2839 122.367C30.0747 122.981 30.1753 123.276 30.4505 123.855C32.3264 127.803 35.8334 131.832 38.6551 135.138C40.3411 137.113 42.2067 138.991 43.3611 141.34C39.2322 138.221 28.526 125.469 27.8345 120.6L28.0238 120.098C28.9243 119.985 29.6872 120.774 30.5987 120.956L30.783 120.648C30.6412 120.116 30.4482 119.763 30.1185 119.323C28.1297 117.851 25.0853 112.267 23.649 110.002L23.544 109.84C16.9012 99.4853 10.5739 85.9766 13.2981 73.4264C13.6455 72.112 14.5501 69.9366 14.373 68.6782C13.7824 68.8849 13.525 69.4364 13.2673 69.9651C12.6514 71.2289 11.8183 75.2092 11.1494 75.8731L10.8395 75.777C10.3127 72.4757 14.8478 65.6948 16.3423 62.645C16.8894 61.5283 17.2567 60.2899 17.7054 59.1276C17.6537 60.2045 17.023 62.5899 17.4362 63.4976C19.3804 62.1611 22.9032 54.9557 24.2639 52.6961Z"/>
	<path d="M151.603 60.3632C151.926 60.3321 152.246 60.319 152.57 60.3303C153.531 60.3639 155.05 60.5928 155.704 61.3668C155.875 61.5698 155.983 61.8454 156.07 62.0938C156.153 62.3266 156.131 62.5689 156.096 62.811C155.817 64.7435 153.416 66.5027 152.523 68.2739C150.883 71.5297 150.1 75.5125 149.703 79.1217C149.667 79.4436 149.616 79.4782 149.822 79.7354C151.692 78.9516 159.108 67.5216 160.802 65.3471C162.005 63.8044 163.806 61.7552 165.896 61.5461C166.523 61.4834 167.121 61.6737 167.604 62.0762C168.519 62.8384 169.136 64.358 169.245 65.5241C169.655 69.9089 164.001 73.3035 162.726 77.441C161.788 80.4859 162.16 84.8436 160.061 87.4204C164.245 85.9113 169.379 80.7233 172.709 77.6994C173.577 76.9116 174.427 75.8926 175.368 75.2143C175.835 74.8777 176.066 74.7692 176.635 74.7568L176.937 75.1636C176.941 76.686 175.307 78.8208 174.401 80.0562C172.346 82.8601 166.83 90.7242 163.469 91.1621C160.795 91.5107 158.803 89.1913 156.927 87.7165C156.965 87.6198 156.999 87.5217 157.024 87.4208C157.245 86.5217 156.792 84.1547 156.334 83.3743C157.323 81.8936 157.1 78.5237 157.556 76.6629C158.192 74.0645 161.019 71.5784 160.479 68.8426C159.765 70.7522 151.752 82.0816 150.019 84.1946C149.466 84.8684 148.674 85.8914 147.743 85.9662C146.389 86.0749 145.331 84.8959 144.4 84.0788L143.575 85.0989C142.085 86.937 139.693 90.7019 137.197 90.9093C135.462 91.0534 133.224 89.6485 131.968 88.569C130.349 87.1773 129.353 85.3148 129.207 83.1748C129.029 80.5819 130.869 71.816 132.614 69.9039C133.285 69.1691 134.189 68.781 135.172 68.7312C136.645 68.6565 138.344 69.2957 139.415 70.3079C139.646 70.527 139.929 70.8747 139.938 71.2171C139.959 72.0031 134.139 80.4437 134.445 84.8033C134.495 85.519 134.693 85.7375 135.185 86.1872C135.789 86.3087 136.223 86.2079 136.777 85.9627C139.058 84.953 142.086 82.8087 143.408 80.6757C144.606 78.743 144.839 75.9841 145.514 73.8015C146.538 70.488 147.692 67.1009 148.954 63.8709C149.542 62.3684 150.058 61.0463 151.603 60.3632Z"/>
	<path d="M100.472 30.5609C101.777 30.4476 102.863 30.8206 104.072 31.2625C108.872 37.0437 109.951 48.3567 111.304 55.6947C113.009 52.8667 126.098 37.1237 128.477 36.1249C129.245 35.8023 130.072 35.8489 130.826 36.1907C131.71 36.5914 132.597 37.5922 132.908 38.5137C133.147 39.2227 132.998 40.0411 132.662 40.6944C131.644 42.6734 129.773 44.5053 128.324 46.1925C124.999 50.0639 114.155 61.7523 112.425 65.3706C112.507 69.9783 113.944 74.598 113.97 79.1513C113.978 80.4533 113.332 81.7786 113.251 83.1247C112.913 88.7269 114.258 95.0686 118.059 99.3608C116.31 95.2503 114.802 91.0738 114.199 86.6226C114.056 85.5616 113.701 83.3768 114.351 82.5247C114.882 83.3544 114.882 85.4074 115.089 86.4243C115.899 90.3933 118.405 98.7769 121.755 100.953C125.857 103.618 129.47 98.321 131.633 97.8806L131.887 98.3428C131.831 100.445 129.633 102.796 128.317 104.336C126.563 106.193 123.835 108.001 121.301 108.449C119.213 108.819 117.185 108.242 115.472 107.026C109.966 103.12 109.075 95.8025 107.733 89.7526C106.591 84.6008 105.655 79.4653 104.788 74.2615C95.8176 83.2862 88.1525 93.5981 78.6365 102.13C77.5754 103.081 75.2007 105.263 73.7907 105.188C73.2923 104.317 73.7122 103.262 74.1419 102.417C75.3145 100.111 77.4022 97.8999 78.9199 95.7788Q87.6469 83.4318 97.2768 71.7753C99.2367 69.3754 101.922 66.945 103.47 64.2817C103.954 63.4486 104.004 62.4443 103.964 61.5035C103.791 57.377 102.701 52.9786 102.17 48.8557C101.706 45.2494 101.821 41.2277 100.861 37.7422C100.44 36.2144 97.3621 32.7833 97.5799 31.6474C98.3283 30.9504 99.5004 30.7933 100.472 30.5609Z"/>
	<path d="M254.597 11.1247C256.155 10.9018 257.878 10.637 259.231 11.6529C260.164 12.3529 260.528 13.4567 260.685 14.5652C262.41 26.7874 251.957 43.8425 244.246 52.5451C240.791 56.4444 236.136 59.9255 233.381 64.3407C230.472 69.0023 230.904 75.6446 227.587 80.0049C230.053 78.5297 231.374 75.7533 233.099 73.5126C235.418 70.5023 244.083 59.6919 247.005 58.1832C248 57.6695 249.334 57.6684 250.389 58.0256C251.326 58.3429 252.091 59.2175 252.499 60.0977C253.888 63.0951 248.295 72.9589 247.072 76.3766C246.326 78.4611 244.337 85.6719 245.248 87.5923C245.514 87.7568 245.684 87.9338 246.01 87.8854C248.194 87.5618 255.406 79.0583 256.766 76.8925C258.721 73.7788 260.018 70.3333 262.215 67.338C263.911 65.0278 266.335 62.7084 269.293 62.2814C270.505 62.1064 271.727 62.357 272.71 63.1073C274.317 64.3354 275.815 67.2134 276.083 69.1981C277.564 68.6959 278.433 66.8527 280.022 66.271C281.009 65.9097 282.632 65.6079 283.612 66.0834C287.24 67.845 282.619 75.8129 281.82 78.3139C281.177 80.3223 279.787 88.5921 280.354 90.2209C280.505 90.6549 280.667 90.6796 281.054 90.8567C282.097 90.7193 283.101 89.4014 283.799 88.64Q286.044 86.1911 287.958 83.4757Q289.872 80.7602 291.424 77.8226C293.026 74.7617 294.373 71.1961 296.597 68.5148C298.632 66.0609 302.039 65.5114 304.023 63.1079C306.139 60.5454 307.752 56.1455 311.042 54.934C312.46 54.4118 313.889 54.6612 315.229 55.2864C317.479 56.3364 319.252 57.8264 320.118 60.2002C321.489 63.9556 320.187 70.4533 318.533 73.9816C320.351 73.7996 325.809 72.1342 327.211 72.6452C327.421 72.7218 327.463 72.955 327.556 73.1517C327.486 73.3788 327.397 73.6015 327.248 73.7899C325.608 75.8637 320.794 76.0282 318.297 76.3506C318.038 77.0993 316.765 77.8959 316.275 78.605C315.429 79.8287 314.762 81.1542 313.855 82.3537C310.249 87.1249 305.031 91.2043 299.79 94.0309C292.177 98.1365 285.01 99.5463 276.761 101.661C273.749 102.434 270.827 103.561 267.723 103.913C263.416 104.402 258.975 104.043 254.641 104.314C249.378 104.643 244.226 105.242 238.931 104.817C235.733 104.561 232.511 103.358 229.302 102.897C225.385 102.334 221.837 102.412 217.963 101.253L217.832 100.699L217.466 100.913L217.841 101.192L217.904 100.66C222.161 99.6383 227.64 100.569 232.002 100.872C236.059 101.155 240.228 101.416 244.29 101.532C249.458 101.681 254.77 101.245 259.937 100.945C266.102 100.799 276.417 99.0784 282.419 97.4691C285.842 96.5511 289.212 95.3001 292.575 94.1822C294.279 93.6158 296.27 93.2401 297.879 92.4941C297.436 91.2543 294.436 90.1758 293.425 89.1021C292.225 87.8286 291.908 85.7785 290.431 84.7542C290.434 84.8706 290.431 84.994 290.398 85.1067C289.712 87.4822 284.009 94.286 281.681 95.5451C280.473 96.1988 279.018 96.5405 277.673 96.1286C276.334 95.7186 275.436 94.6661 274.815 93.4565C272.641 89.2227 273.455 83.4146 274.857 79.0287C275.062 78.3886 275.273 77.7019 274.96 77.0988C273.991 77.535 272.811 80.3262 272.144 81.3435C270.161 84.3665 266.127 89.8127 263.078 91.688C261.335 92.7599 259.816 92.1851 257.991 91.7429C257.889 91.0386 256.504 89.6996 256.179 88.8212C255.524 87.053 256.422 85.3328 255.31 83.6021C255.305 83.7744 255.291 83.9663 255.231 84.129C254.463 86.1946 247.657 94.9464 245.755 95.6405C244.77 95.9999 243.517 95.6316 242.609 95.1968C240.564 94.2188 238.499 92.4197 237.742 90.2344C235.541 83.8804 241.961 73.2054 244.702 67.4854C245.517 65.7846 246.754 63.3673 246.096 61.5185L246.064 61.4309Q245.983 61.7287 245.865 62.014C244.274 65.8121 237.684 71.5699 234.822 75.061C232.905 77.3981 231.313 80.2775 229.661 82.8206C228.585 84.4769 226.302 89.019 224.579 89.6863C224.219 89.8255 223.737 89.7496 223.393 89.5941C220.396 88.2392 222.087 84.7531 221.206 82.2945C220.492 82.5037 216.026 88.3737 214.966 89.5361C211.829 92.975 207.039 97.8222 202.115 98.0206C200.754 98.0754 199.422 97.7065 198.411 96.7621C196.116 94.6182 195.687 90.6253 195.571 87.6358C195.264 79.7888 198.104 72.6755 201.892 65.9388C203.071 63.8423 204.315 61.5926 205.965 59.8231C207.275 58.4182 208.951 57.3531 210.921 57.3043C212.307 57.2699 213.849 57.7035 214.864 58.6829C216.387 60.1536 216.98 62.9924 216.997 65.0305C217.011 66.6166 216.678 68.4653 215.517 69.634C214.759 70.3966 213.782 70.9679 212.688 70.9708C210.423 69.5216 214.012 63.3837 212.788 60.8287C212.604 60.7451 212.418 60.5946 212.225 60.6696C210.598 61.3024 209.2 64.1691 208.563 65.6834C206.338 70.9701 201.045 86.2873 203.346 91.6075C203.609 92.2154 203.996 92.6608 204.636 92.8745C205.184 93.0575 205.91 92.8141 206.417 92.5876C210.617 90.7155 220.774 78.9644 222.351 74.9038C223.488 71.9739 223.852 68.3901 224.543 65.3092C225.626 60.4743 227.08 55.5351 228.856 50.9106C232.743 40.7902 243.074 19.6567 251.277 12.9634C252.273 12.1506 253.431 11.6429 254.597 11.1247ZM256.42 15.6242C251.888 20.4899 243.613 37.2673 240.695 44.0054C239.603 46.5265 238.725 49.1348 237.765 51.7075C237.334 52.8628 236.26 54.7526 236.293 55.9775C236.297 56.1272 236.316 56.2575 236.363 56.3991L236.776 56.1264C238.138 55.1342 239.372 53.1144 240.439 51.7828C247.873 42.5013 255.969 29.7463 257.807 17.9575C257.927 17.1907 257.91 16.5767 257.467 15.9096C257.083 15.6723 256.886 15.5904 256.42 15.6242ZM302.204 70.8741C302.203 70.9198 302.202 70.9656 302.199 71.0113C301.994 74.7314 294.767 84.8656 297.623 88.346C298.359 88.7842 298.999 88.7826 299.808 88.5721C301.151 88.2227 302.682 87.6534 303.771 86.78L303.862 86.6013C306.809 85.2457 310.412 80.2153 311.554 77.1919C311.664 76.8993 311.686 76.6411 311.635 76.333C309.192 75.7958 305.793 75.0204 304.343 72.7797C303.923 72.1302 303.634 71.3497 302.961 70.9258L302.204 70.8741ZM270.685 65.6245C266.43 68.6148 263.537 77.3305 262.667 82.3624C262.436 83.6993 262.428 85.1039 262.801 86.4181L263.277 86.8525C263.649 86.533 263.858 86.2425 264.089 85.811C266.06 84.5304 273.129 74.9375 273.656 72.6811C273.761 72.2278 272.804 66.5697 272.609 66.273C272.425 65.9927 272.124 65.7954 271.842 65.6257C271.444 65.5901 271.083 65.5613 270.685 65.6245ZM313.368 57.6246C312.32 58.5656 311.007 59.6363 310.22 60.8081C308.919 62.7456 306.766 69.2938 306.643 71.6116C306.61 72.2387 306.731 72.6449 307.153 73.114C307.712 73.7343 308.808 74.0892 309.546 74.468C310.533 74.6507 311.589 74.9824 312.484 74.3758C313.849 73.4504 316.183 64.1308 316.525 62.1756C316.589 61.8078 316.617 61.5456 316.44 61.1985C316.606 60.3939 316.246 59.347 315.796 58.6707C315.462 58.1682 315.018 57.826 314.49 57.5478C314.119 57.5692 313.736 57.5725 313.368 57.6246Z"/>
</svg>
