<?xml version="1.0" standalone="no"?>
<!DOCTYPE svg PUBLIC "-//W3C//DTD SVG 20010904//EN"
 "http://www.w3.org/TR/2001/REC-SVG-20010904/DTD/svg10.dtd">
<svg version="1.0" xmlns="http://www.w3.org/2000/svg"
 width="300.000000pt" height="132.000000pt" viewBox="0 0 300.000000 132.000000"
 preserveAspectRatio="xMidYMid meet">
<metadata>
Created by potrace 1.10, written by Peter Selinger 2001-2011
</metadata>
<g transform="translate(0.000000,132.000000) scale(0.100000,-0.100000)"
fill="#000000" stroke="none">
<path d="M185 1179 c-38 -28 -79 -57 -90 -65 -17 -12 -18 -16 -5 -24 8 -5 38
-12 67 -16 39 -5 52 -11 56 -26 4 -15 1 -18 -16 -16 -19 3 -22 -3 -25 -34 -2
-22 1 -38 7 -38 6 0 11 14 11 30 0 29 13 40 25 20 3 -5 18 -9 33 -9 24 2 24 2
5 6 -18 3 -23 11 -23 35 l0 30 42 -42 c42 -41 51 -44 108 -29 11 3 16 -6 17
-36 6 -90 27 -163 74 -256 27 -55 54 -99 59 -99 6 0 -9 39 -34 88 -65 130 -65
128 -8 124 50 -3 213 47 220 68 2 6 -20 1 -50 -11 -29 -12 -66 -25 -83 -30
-43 -13 -133 -11 -141 3 -4 7 -10 45 -14 85 -5 62 -3 72 10 69 17 -5 79 -20
123 -30 15 -4 27 -3 27 2 0 5 -33 16 -74 25 -41 9 -87 24 -102 34 l-28 18 55
11 c51 11 45 12 -87 13 -144 1 -234 9 -234 20 0 3 39 32 85 64 l85 58 61 -41
c33 -23 63 -40 65 -37 9 9 -106 87 -128 87 -13 -1 -54 -23 -93 -51z m191 -138
l25 -19 -37 -12 c-44 -15 -60 -3 -38 28 18 27 20 27 50 3z"/>
<path d="M2233 1205 c-69 -48 -188 -276 -233 -447 -23 -86 -36 -117 -71 -163
-45 -59 -106 -108 -122 -98 -17 10 0 126 29 202 35 90 60 108 50 36 -7 -42 -6
-46 11 -43 9 2 22 16 27 31 15 41 -10 81 -52 85 -28 3 -35 -2 -62 -44 -87
-137 -96 -314 -16 -314 31 0 101 52 134 100 15 22 30 39 34 40 4 0 8 -15 10
-32 4 -46 22 -41 59 17 46 72 153 199 157 186 2 -6 -10 -34 -26 -63 -17 -29
-37 -77 -46 -107 -14 -49 -14 -57 0 -78 8 -13 26 -29 39 -35 30 -13 42 -5 85
60 24 37 30 41 30 23 0 -33 18 -61 39 -61 20 0 95 76 113 115 15 33 30 32 18
-1 -17 -43 -12 -109 8 -127 10 -10 25 -17 34 -17 18 0 58 36 83 74 17 25 19
26 28 9 5 -10 18 -25 29 -34 19 -15 17 -17 -53 -42 -131 -45 -329 -62 -552
-45 -65 5 -87 3 -84 -5 12 -37 393 -41 540 -6 144 34 224 76 299 159 53 59 68
70 95 70 17 0 35 5 38 11 12 18 -4 23 -41 11 -34 -10 -36 -10 -30 11 21 77 19
95 -12 127 -39 39 -55 38 -89 -6 -30 -39 -32 -41 -81 -80 -18 -15 -45 -50 -59
-78 -33 -66 -93 -140 -104 -129 -12 12 5 103 26 142 31 61 9 99 -40 67 -24
-16 -25 -15 -40 14 -9 17 -24 30 -34 30 -28 0 -68 -36 -98 -88 -27 -48 -96
-130 -121 -146 -24 -14 -5 76 34 161 36 79 34 113 -5 113 -20 0 -107 -89 -149
-152 -37 -56 -42 -46 -15 29 19 52 39 82 97 144 114 121 197 301 167 365 -12
28 -46 32 -78 9z m57 -40 c0 -35 -55 -155 -105 -229 -74 -109 -80 -116 -98
-116 -15 0 -15 5 3 50 25 63 109 230 115 230 3 0 -4 -18 -15 -40 -34 -66 -22
-59 16 10 53 94 63 110 74 110 6 0 10 -7 10 -15z m515 -377 c3 -13 -1 -45 -8
-73 -14 -53 -42 -71 -66 -41 -22 27 25 136 59 136 5 0 12 -10 15 -22z m-381
-83 c6 -31 2 -42 -41 -98 -47 -61 -48 -61 -51 -33 -6 48 50 166 78 166 4 0 11
-16 14 -35z m322 -55 c34 0 30 -11 -18 -64 -50 -54 -95 -67 -90 -26 1 14 13
51 25 83 l22 58 18 -26 c11 -15 29 -25 43 -25z"/>
<path d="M868 1044 c-4 -3 1 -18 12 -33 13 -18 22 -61 31 -142 l12 -117 -70
-83 c-80 -97 -192 -246 -200 -265 -21 -57 132 85 237 217 39 49 50 48 50 -3 0
-11 10 -61 21 -111 25 -103 56 -147 106 -147 35 0 103 54 103 81 0 20 0 20
-26 0 -51 -40 -78 -22 -108 69 -8 25 -16 54 -19 65 -4 16 -5 15 -6 -5 0 -14 8
-50 19 -80 13 -39 14 -49 4 -35 -23 30 -36 95 -30 139 3 23 2 65 -3 95 l-8 53
94 109 c94 110 109 141 67 147 -14 2 -37 -17 -83 -71 -35 -41 -67 -80 -71 -88
-12 -19 -15 -13 -27 63 -15 91 -41 142 -73 146 -14 2 -29 0 -32 -4z"/>
<path d="M347 909 c-9 -6 -17 -21 -17 -35 0 -14 -5 -34 -11 -46 -9 -16 -7 -24
11 -43 12 -13 19 -28 16 -33 -3 -5 4 -31 15 -58 12 -26 30 -96 40 -156 18
-107 57 -216 87 -240 8 -7 13 -8 11 -3 -3 6 -15 32 -28 58 -12 26 -35 107 -52
179 -16 72 -38 152 -49 177 -20 46 -20 46 0 21 11 -14 29 -52 40 -85 19 -56
67 -141 75 -133 2 2 -10 33 -28 69 -18 36 -41 87 -51 113 -11 27 -32 63 -47
81 -26 29 -27 35 -17 66 6 19 15 42 20 52 12 24 8 28 -15 16z"/>
<path d="M2360 883 c0 -14 27 -27 113 -56 61 -20 125 -39 140 -42 l29 -4 -24
18 c-35 27 -84 51 -162 77 -83 29 -96 29 -96 7z"/>
<path d="M1239 878 c-1 -2 -2 -18 -4 -36 -1 -18 -10 -41 -19 -51 -19 -21 -21
-51 -3 -51 15 0 45 29 46 45 1 6 8 18 16 28 18 21 19 39 3 55 -10 10 -36 17
-39 10z"/>
<path d="M180 800 c-24 -47 -28 -50 -24 -12 l4 27 -9 -27 c-5 -15 -18 -43 -30
-61 -44 -72 6 -266 109 -417 23 -34 38 -60 31 -56 -17 11 -13 -10 8 -52 23
-44 110 -142 111 -125 0 7 -15 30 -33 50 -36 41 -77 98 -77 107 0 3 7 2 17 -1
19 -7 17 -3 -30 65 -16 24 -50 87 -75 140 -44 91 -47 102 -47 178 0 76 2 84
39 145 51 83 49 79 37 79 -6 0 -20 -18 -31 -40z"/>
<path d="M1325 761 c-8 -16 -23 -58 -32 -94 -13 -48 -26 -71 -50 -91 -32 -27
-53 -28 -53 -2 0 7 11 35 25 62 29 56 26 74 -10 74 -27 0 -38 -17 -54 -91 -10
-46 3 -77 42 -99 28 -15 29 -14 63 25 18 22 34 34 34 28 0 -7 8 -13 18 -13 10
0 36 29 66 75 27 42 50 74 53 72 2 -2 -6 -24 -17 -48 -29 -64 -27 -114 6 -136
23 -14 29 -15 49 -2 29 18 105 109 105 126 0 22 -14 14 -60 -33 -25 -25 -53
-50 -64 -56 -17 -9 -18 -7 -11 34 3 23 20 62 36 86 32 48 36 73 14 92 -13 11
-22 6 -56 -31 -22 -24 -52 -63 -67 -86 -15 -24 -30 -43 -33 -43 -11 0 11 84
29 109 9 13 22 30 27 38 7 10 6 16 -5 23 -25 16 -39 11 -55 -19z"/>
<path d="M150 380 c-1 -62 109 -292 142 -298 13 -2 7 12 -21 55 -22 32 -57
103 -80 158 -22 55 -41 93 -41 85z"/>
</g>
</svg>
